<svg width="545" height="188" viewBox="0 0 545 188" fill="none" xmlns="http://www.w3.org/2000/svg">
<g filter="url(#filter0_d_5_3)">
<path d="M144.239 128.365C134.733 118.095 129.978 105.472 129.975 90.4962C129.972 75.5202 134.721 62.9432 144.223 52.7652C153.821 42.4912 165.916 37.3527 180.508 37.3496C195.1 37.3466 207.197 42.48 216.799 52.75C226.401 62.924 231.204 75.499 231.207 90.475C231.209 99.307 229.387 107.515 225.74 115.1C222.19 122.589 217.247 128.782 210.912 133.679C230.595 145.579 245.764 153.352 256.421 156.998C269.094 161.315 280.518 163.473 290.694 163.471C296.55 163.469 303.222 162.7 310.71 161.162C318.198 159.625 323.573 158.04 326.837 156.407L328.566 160.439C324.822 162.359 319.063 164.233 311.287 166.058C303.607 167.884 296.744 168.797 290.696 168.799C284.648 168.8 278.215 168.033 271.399 166.499C264.679 165.06 258.871 163.525 253.974 161.894C249.174 160.263 243.173 157.673 235.973 154.122C228.772 150.572 223.587 147.885 220.419 146.061C217.346 144.334 212.306 141.455 205.297 137.424C197.714 141.65 189.458 143.764 180.53 143.766C165.938 143.769 153.841 138.635 144.239 128.365ZM149.408 57.2281C141.442 66.1578 137.46 77.2466 137.463 90.4946C137.466 103.743 141.452 114.878 149.422 123.9C157.488 132.922 167.857 137.432 180.529 137.43C187.441 137.428 193.681 136.035 199.248 133.25C187.246 125.092 177.79 121.014 170.878 121.016C166.558 121.017 163.054 121.785 160.366 123.322L158.061 119.146C161.613 116.746 165.98 115.545 171.164 115.544C176.348 115.542 181.533 116.789 186.717 119.284C191.998 121.779 198.046 125.33 204.863 129.937C210.815 125.711 215.421 120.142 218.684 113.23C222.043 106.317 223.721 98.7326 223.719 90.4766C223.716 77.2286 219.682 66.1414 211.616 57.2151C203.646 48.1928 193.277 43.6829 180.509 43.6856C167.741 43.6883 157.374 48.2025 149.408 57.2281Z" fill="url(#paint0_linear_5_3)"/>
<path d="M247.732 75.851C246.987 82.9445 246.615 88.6246 246.616 92.8913C246.617 101.265 248.192 105.451 251.338 105.45C253.312 105.45 255.365 104.116 257.497 101.449C259.63 98.7285 261.496 94.8615 263.095 89.8478C263.042 88.9945 263.015 87.2612 263.014 84.6478C263.013 82.0345 263.253 79.3678 263.732 76.6477L270.132 73.8463L272.132 74.9659C270.373 80.1396 269.494 86.1131 269.496 92.8865C269.496 95.8198 269.71 99.8464 270.138 104.966C270.619 110.086 271.1 113.526 271.58 115.286C271.58 115.446 271.154 115.526 270.3 115.526C269.5 115.526 268.727 115.153 267.98 114.407C266.379 110.567 265.018 104.781 263.897 97.0476C261.711 102.328 259.045 106.649 255.899 110.009C252.807 113.37 249.874 115.051 247.1 115.051C242.834 115.052 240.7 112.039 240.698 106.013C240.698 101.906 240.91 98.0391 241.336 94.4124C241.815 90.7856 242.268 87.3455 242.694 84.0921C243.173 80.8387 243.519 78.3586 243.732 76.6519C243.999 76.3851 244.532 76.145 245.332 75.9315C246.132 75.6647 246.719 75.5312 247.092 75.5312C247.519 75.5311 247.732 75.6377 247.732 75.851ZM289.872 77.6022C289.979 79.2022 290.033 80.8555 290.033 82.5622C290.035 91.8422 288.41 102.056 285.159 113.203C284.413 113.95 283.4 114.324 282.12 114.324C281.853 114.324 281.666 114.297 281.56 114.244C281.506 114.191 281.506 114.111 281.56 114.004C282.838 106.377 283.476 99.3635 283.475 92.9635C283.474 86.5635 282.806 80.8037 281.471 75.684L283.391 74.4836L289.872 77.6022ZM286.59 69.6829C285.257 69.6832 284.217 69.2301 283.47 68.3235C282.776 67.417 282.429 66.2704 282.429 64.8838C282.429 63.4971 283.042 62.297 284.268 61.2834C285.495 60.2165 287.281 59.5227 289.628 59.2023C291.228 60.5353 292.029 62.1351 292.029 64.0017C292.029 65.8151 291.47 67.2285 290.35 68.2421C289.23 69.2023 287.977 69.6826 286.59 69.6829ZM325.194 110.635C325.728 111.328 325.995 112.181 325.995 113.195C325.995 114.155 325.942 114.635 325.835 114.635C321.462 113.622 316.768 113.117 311.755 113.118C306.795 113.119 302.075 113.493 297.595 114.241L296.315 112.241C297.434 110.961 298.874 109.28 300.634 107.2C302.447 105.066 305.139 101.439 308.711 96.3183C312.337 91.1975 314.869 86.9036 316.309 83.4367C314.549 84.1837 312.042 84.5576 308.789 84.5582C305.589 84.5589 302.816 84.2395 300.469 83.6L297.747 76.5606L299.107 74.4803C303.961 76.6659 308.894 77.7582 313.908 77.7572C317.214 77.7565 319.694 77.3293 321.347 76.4756L322.227 76.0754L324.948 81.6749C323.03 88.0219 316.231 96.5833 304.554 107.359C314.474 108.264 321.354 109.356 325.194 110.635ZM357.773 110.628C358.306 111.321 358.573 112.174 358.573 113.188C358.573 114.148 358.52 114.628 358.413 114.628C354.04 113.615 349.346 113.11 344.333 113.111C339.373 113.112 334.653 113.486 330.173 114.234L328.893 112.234C330.013 110.954 331.452 109.273 333.212 107.193C335.025 105.059 337.717 101.432 341.29 96.3114C344.915 91.1907 347.448 86.8968 348.887 83.4298C347.127 84.1769 344.62 84.5507 341.367 84.5514C338.167 84.5521 335.394 84.2327 333.047 83.5932L330.325 76.5537L331.685 74.4734C336.539 76.6591 341.472 77.7514 346.486 77.7503C349.792 77.7496 352.272 77.3225 353.925 76.4688L354.805 76.0686L357.526 81.668C355.608 88.0151 348.81 96.5765 337.132 107.352C347.052 108.257 353.932 109.349 357.773 110.628Z" fill="#FF0000"/>
</g>
<defs>
<filter id="filter0_d_5_3" x="-4" y="0" width="553" height="196" filterUnits="userSpaceOnUse" color-interpolation-filters="sRGB">
<feFlood flood-opacity="0" result="BackgroundImageFix"/>
<feColorMatrix in="SourceAlpha" type="matrix" values="0 0 0 0 0 0 0 0 0 0 0 0 0 0 0 0 0 0 127 0" result="hardAlpha"/>
<feOffset dy="4"/>
<feGaussianBlur stdDeviation="2"/>
<feComposite in2="hardAlpha" operator="out"/>
<feColorMatrix type="matrix" values="0 0 0 0 0 0 0 0 0 0 0 0 0 0 0 0 0 0 0.25 0"/>
<feBlend mode="normal" in2="BackgroundImageFix" result="effect1_dropShadow_5_3"/>
<feBlend mode="normal" in="SourceGraphic" in2="effect1_dropShadow_5_3" result="shape"/>
</filter>
<linearGradient id="paint0_linear_5_3" x1="116.475" y1="32.9999" x2="282.949" y2="72.4853" gradientUnits="userSpaceOnUse">
<stop stop-color="#FF0000"/>
<stop offset="0.9999" stop-color="#F48989"/>
</linearGradient>
</defs>
</svg>
