<svg width="244" height="151" viewBox="0 0 244 151" fill="none" xmlns="http://www.w3.org/2000/svg">
<path d="M27.2391 110.365C17.733 100.095 12.9783 87.4722 12.9752 72.4962C12.972 57.5202 17.7214 44.9432 27.2233 34.7652C36.8211 24.4912 48.916 19.3527 63.508 19.3496C78.1001 19.3466 90.1971 24.48 99.7993 34.75C109.401 44.924 114.204 57.499 114.207 72.475C114.209 81.307 112.387 89.5154 108.74 97.1002C105.19 104.589 100.247 110.782 93.9122 115.679C113.595 127.579 128.764 135.352 139.421 138.998C152.094 143.315 163.518 145.473 173.694 145.471C179.55 145.469 186.222 144.7 193.71 143.162C201.198 141.625 206.573 140.04 209.837 138.407L211.566 142.439C207.822 144.359 202.063 146.233 194.287 148.058C186.607 149.884 179.744 150.797 173.696 150.799C167.648 150.8 161.215 150.033 154.399 148.499C147.679 147.06 141.871 145.525 136.974 143.894C132.174 142.263 126.173 139.673 118.973 136.122C111.772 132.572 106.587 129.885 103.419 128.061C100.346 126.334 95.3059 123.455 88.297 119.424C80.7139 123.65 72.4584 125.764 63.5303 125.766C48.9383 125.769 36.8413 120.635 27.2391 110.365ZM32.4082 39.2281C24.4421 48.1578 20.4604 59.2466 20.4632 72.4946C20.466 85.7426 24.4523 96.8778 32.4222 105.9C40.4881 114.922 50.857 119.432 63.529 119.43C70.441 119.428 76.6807 118.035 82.2481 115.25C70.2464 107.092 60.7896 103.014 53.8776 103.016C49.5576 103.017 46.0537 103.785 43.3661 105.322L41.0612 101.146C44.6127 98.7456 48.9804 97.5447 54.1644 97.5436C59.3484 97.5425 64.5327 98.7894 69.7172 101.284C74.9977 103.779 81.0465 107.33 87.8635 111.937C93.8146 107.711 98.4214 102.142 101.684 95.2296C105.043 88.3169 106.721 80.7326 106.719 72.4766C106.716 59.2286 102.682 48.1414 94.6162 39.2151C86.6463 30.1928 76.2774 25.6829 63.5094 25.6856C50.7414 25.6883 40.3743 30.2025 32.4082 39.2281Z" fill="url(#paint0_linear_2_6)"/>
<path d="M130.732 57.851C129.987 64.9445 129.615 70.6246 129.616 74.8913C129.617 83.2646 131.192 87.4509 134.338 87.4503C136.312 87.4499 138.365 86.1161 140.497 83.449C142.63 80.7285 144.496 76.8615 146.095 71.8478C146.042 70.9945 146.015 69.2612 146.014 66.6478C146.013 64.0345 146.253 61.3678 146.732 58.6477L153.132 55.8463L155.132 56.9659C153.373 62.1396 152.494 68.1131 152.496 74.8865C152.496 77.8198 152.71 81.8464 153.138 86.9663C153.619 92.0862 154.1 95.5261 154.58 97.286C154.58 97.446 154.154 97.5261 153.3 97.5263C152.5 97.5265 151.727 97.1533 150.98 96.4068C149.379 92.5671 148.018 86.7807 146.897 79.0476C144.711 84.3281 142.045 88.6487 138.899 92.0093C135.807 95.37 132.874 97.0506 130.1 97.0512C125.834 97.0521 123.7 94.0392 123.698 88.0125C123.698 83.9058 123.91 80.0391 124.336 76.4124C124.815 72.7856 125.268 69.3455 125.694 66.0921C126.173 62.8387 126.519 60.3586 126.732 58.6519C126.999 58.3851 127.532 58.145 128.332 57.9315C129.132 57.6647 129.719 57.5312 130.092 57.5312C130.519 57.5311 130.732 57.6377 130.732 57.851ZM172.872 59.6022C172.979 61.2022 173.033 62.8555 173.033 64.5622C173.035 73.8422 171.41 84.0558 168.159 95.2032C167.413 95.95 166.4 96.3236 165.12 96.3238C164.853 96.3239 164.666 96.2973 164.56 96.2439C164.506 96.1906 164.506 96.1106 164.56 96.0039C165.838 88.377 166.476 81.3635 166.475 74.9635C166.474 68.5635 165.806 62.8037 164.471 57.684L166.391 56.4836L172.872 59.6022ZM169.59 51.6829C168.257 51.6832 167.217 51.2301 166.47 50.3235C165.776 49.417 165.429 48.2704 165.429 46.8838C165.429 45.4971 166.042 44.297 167.268 43.2834C168.495 42.2165 170.281 41.5227 172.628 41.2023C174.228 42.5353 175.029 44.1351 175.029 46.0017C175.029 47.8151 174.47 49.2285 173.35 50.2421C172.23 51.2023 170.977 51.6826 169.59 51.6829ZM208.194 92.6348C208.728 93.328 208.995 94.1813 208.995 95.1946C208.995 96.1546 208.942 96.6346 208.835 96.6347C204.462 95.6223 199.768 95.1166 194.755 95.1176C189.795 95.1187 185.075 95.493 180.595 96.2406L179.315 94.2409C180.434 92.9606 181.874 91.2803 183.634 89.2C185.447 87.0662 188.139 83.439 191.711 78.3183C195.337 73.1975 197.869 68.9036 199.309 65.4367C197.549 66.1837 195.042 66.5576 191.789 66.5582C188.589 66.5589 185.816 66.2395 183.469 65.6L180.747 58.5606L182.107 56.4803C186.961 58.6659 191.894 59.7582 196.908 59.7572C200.214 59.7565 202.694 59.3293 204.347 58.4756L205.227 58.0754L207.948 63.6749C206.03 70.0219 199.231 78.5833 187.554 89.3591C197.474 90.2637 204.354 91.3556 208.194 92.6348ZM240.773 92.628C241.306 93.3212 241.573 94.1745 241.573 95.1878C241.573 96.1478 241.52 96.6278 241.413 96.6278C237.04 95.6154 232.346 95.1097 227.333 95.1108C222.373 95.1118 217.653 95.4862 213.173 96.2338L211.893 94.234C213.013 92.9538 214.452 91.2735 216.212 89.1931C218.025 87.0594 220.717 83.4322 224.29 78.3114C227.915 73.1907 230.448 68.8968 231.887 65.4298C230.127 66.1769 227.62 66.5507 224.367 66.5514C221.167 66.5521 218.394 66.2327 216.047 65.5932L213.325 58.5537L214.685 56.4734C219.539 58.6591 224.472 59.7514 229.486 59.7503C232.792 59.7496 235.272 59.3225 236.925 58.4688L237.805 58.0686L240.526 63.668C238.608 70.0151 231.81 78.5765 220.132 89.3523C230.052 90.2569 236.932 91.3488 240.773 92.628Z" fill="#FF0000"/>
<defs>
<linearGradient id="paint0_linear_2_6" x1="-0.525267" y1="14.9999" x2="165.949" y2="54.4853" gradientUnits="userSpaceOnUse">
<stop stop-color="#FF0000"/>
<stop offset="0.9999" stop-color="#F48989"/>
</linearGradient>
</defs>
</svg>
